<svg width="50" height="50" viewBox="0 0 50 50" fill="none" xmlns="http://www.w3.org/2000/svg">
<path fill-rule="evenodd" clip-rule="evenodd" d="M17.0644 10.5836C18.4955 7.91118 21.283 6.2451 24.3144 6.25024C27.3995 6.2271 30.2449 7.9103 31.7102 10.6252L43.4602 32.3752C44.8542 34.9577 44.787 38.083 43.2835 40.6032C41.7799 43.1234 39.0615 44.6669 36.1269 44.6669H12.5019C9.55846 44.6676 6.833 43.1154 5.33185 40.5836C3.8307 38.0517 3.77654 34.9157 5.18939 32.3336L17.0644 10.5836ZM28.8977 12.1044C27.994 10.4154 26.23 9.36495 24.3144 9.37524C22.4269 9.38833 20.6956 10.4256 19.7936 12.0836L7.93939 33.7919C7.05399 35.4016 7.08607 37.3596 8.02372 38.9395C8.96138 40.5194 10.6647 41.4855 12.5019 41.4794H36.1269C37.9575 41.4682 39.649 40.5006 40.5865 38.9282C41.5239 37.3558 41.5709 35.4076 40.7102 33.7919L28.8977 12.1044Z" fill="white"/>
<path d="M24.3144 31.2505C23.4514 31.2505 22.7519 31.95 22.7519 32.813C22.7519 33.6759 23.4514 34.3755 24.3144 34.3755C24.7305 34.3811 25.1312 34.2183 25.4255 33.9241C25.7197 33.6298 25.8826 33.2291 25.8769 32.813C25.8769 32.4005 25.7116 32.0051 25.418 31.7154C25.1244 31.4257 24.7269 31.2657 24.3144 31.2713V31.2505Z" fill="white"/>
<path d="M24.3144 28.3963C23.4561 28.3851 22.7631 27.6921 22.7519 26.8338V20.3755C22.7519 19.5125 23.4514 18.813 24.3144 18.813C25.1773 18.813 25.8769 19.5125 25.8769 20.3755V26.8338C25.8769 27.6967 25.1773 28.3963 24.3144 28.3963Z" fill="white"/>
</svg>
