<svg width="50" height="50" viewBox="0 0 50 50" fill="none" xmlns="http://www.w3.org/2000/svg">
<path fill-rule="evenodd" clip-rule="evenodd" d="M45.2917 30.7083L45.5834 32.1458C45.901 33.3738 45.6419 34.6797 44.8796 35.6934C44.1172 36.7072 42.9346 37.3185 41.6667 37.3542H33.7292C33.7311 40.7262 31.0577 43.4918 27.6876 43.6042H10.4167C8.50951 43.5726 6.72114 42.6717 5.56049 41.158C4.39984 39.6443 3.99398 37.6834 4.45839 35.8333L4.89589 33.75C5.40461 30.8801 7.87742 28.7743 10.7917 28.7292H27.3334C28.0716 27.8468 29.1621 27.3359 30.3126 27.3333H41.3334C43.2793 27.3954 44.9228 28.7967 45.2917 30.7083ZM41.625 34.2083C41.8792 34.1989 42.116 34.0767 42.2709 33.875C42.5434 33.6001 42.6806 33.2189 42.6459 32.8333L42.3542 31.3958C42.2978 30.9302 41.9253 30.5663 41.4584 30.5208H30.4375C30.1978 30.5224 29.9732 30.6386 29.8334 30.8333C29.236 31.5214 28.3696 31.9166 27.4584 31.9167H10.9167C9.4905 31.9514 8.29544 33.0059 8.08339 34.4167L7.64589 36.5C7.43221 37.5261 7.68395 38.5941 8.33339 39.4167C8.84068 40.0565 9.60097 40.4442 10.4167 40.4792H27.625C29.3017 40.3678 30.5902 38.9505 30.5417 37.2708C30.5758 35.5694 31.9649 34.208 33.6667 34.2083H41.625Z" fill="white"/>
<path fill-rule="evenodd" clip-rule="evenodd" d="M27.2917 16.6667C27.2917 21.269 23.5608 25 18.9584 25C14.356 25 10.6251 21.269 10.6251 16.6667V13.3958C10.6251 9.52984 13.7591 6.39583 17.6251 6.39583H20.3542C24.1958 6.43013 27.2919 9.55412 27.2917 13.3958V16.6667ZM17.6251 9.52083C15.4849 9.52083 13.7501 11.2557 13.7501 13.3958L13.8125 16.6667C14.145 19.2899 16.3766 21.2565 19.0209 21.2565C21.6651 21.2565 23.8967 19.2899 24.2292 16.6667V13.3958C24.2292 11.2557 22.4943 9.52083 20.3542 9.52083H17.6251Z" fill="white"/>
<path fill-rule="evenodd" clip-rule="evenodd" d="M43.0834 17.1875C43.0834 20.6393 40.2852 23.4375 36.8334 23.4375C33.3816 23.4375 30.5834 20.6393 30.5834 17.1875V14.7917C30.583 11.9244 32.8832 9.58718 35.7501 9.54167H37.8334C40.7329 9.54167 43.0834 11.8922 43.0834 14.7917V17.1875ZM35.7917 12.7083C34.6411 12.7083 33.7084 13.6411 33.7084 14.7917V17.1875C33.7084 18.9134 35.1075 20.3125 36.8334 20.3125C38.5593 20.3125 39.9584 18.9134 39.9584 17.1875V14.7917C39.9584 13.6411 39.0257 12.7083 37.8751 12.7083H35.7917Z" fill="white"/>
</svg>
